<?xml version="1.0" standalone="no"?>
<!DOCTYPE svg PUBLIC "-//W3C//DTD SVG 20010904//EN"
 "http://www.w3.org/TR/2001/REC-SVG-20010904/DTD/svg10.dtd">
<svg version="1.0" xmlns="http://www.w3.org/2000/svg"
 width="512.000000pt" height="512.000000pt" viewBox="0 0 512.000000 512.000000"
 preserveAspectRatio="xMidYMid meet">
<metadata>
Created by potrace 1.11, written by Peter Selinger 2001-2013
</metadata>
<g transform="translate(0.000000,512.000000) scale(0.100000,-0.100000)"
fill="#000000" stroke="none">
<path d="M1798 5034 c-2 -1 -43 -5 -91 -8 -49 -2 -95 -10 -103 -17 -8 -6 -14
-8 -14 -5 0 4 -13 -1 -30 -11 -16 -9 -30 -21 -30 -26 0 -4 4 -6 8 -3 10 6 101
-35 122 -55 8 -8 28 -21 43 -29 16 -8 37 -26 46 -40 17 -24 49 -133 57 -193 2
-16 7 -34 11 -40 4 -6 8 -18 9 -27 1 -8 5 -25 8 -37 22 -85 28 -137 30 -250 0
-57 5 -103 9 -103 5 0 5 -5 1 -11 -4 -6 -8 -32 -9 -58 -5 -84 -21 -114 -60
-116 -11 -1 -55 53 -55 67 0 13 -43 102 -53 109 -5 3 -8 9 -7 13 1 3 -8 32
-20 64 -12 31 -23 62 -25 67 -1 6 -5 17 -8 25 -3 8 -22 78 -41 155 -68 272
-91 346 -127 396 -21 30 -25 31 -73 26 -68 -7 -114 -16 -156 -31 -19 -6 -52
-11 -72 -11 -21 1 -38 -1 -38 -4 0 -3 -31 -6 -70 -6 -65 0 -72 2 -114 38 -25
20 -49 37 -54 37 -5 0 -9 -40 -10 -88 -1 -101 -22 -169 -71 -231 -17 -21 -31
-41 -31 -44 0 -3 -15 -23 -34 -43 -19 -21 -33 -41 -31 -44 2 -3 -12 -19 -32
-36 -75 -62 -103 -93 -103 -113 0 -23 29 -113 39 -121 3 -3 13 -18 21 -35 8
-16 18 -32 21 -35 3 -3 20 -26 37 -52 18 -25 44 -56 58 -67 15 -12 23 -21 18
-21 -15 0 115 -118 191 -174 22 -16 47 -35 55 -43 39 -34 206 -153 215 -153 2
0 31 -18 64 -40 33 -22 62 -40 64 -40 7 0 141 -81 147 -89 3 -3 13 -11 24 -16
32 -18 79 -91 72 -113 -19 -58 -152 -52 -288 15 -38 18 -73 33 -78 33 -5 0
-15 6 -22 13 -15 13 -14 12 -144 91 -49 30 -102 66 -117 80 -15 14 -27 22 -27
19 0 -3 -16 10 -36 29 -19 19 -59 55 -87 78 -74 62 -240 282 -232 307 2 6 -2
14 -10 17 -18 7 -48 111 -47 169 0 26 -3 47 -7 47 -15 0 -241 -431 -241 -460
0 -6 -5 -10 -11 -10 -5 0 -7 -5 -4 -10 4 -6 3 -16 -2 -23 -11 -14 -10 -23 5
-59 6 -16 16 -28 22 -28 6 0 9 -4 6 -9 -3 -5 1 -14 9 -21 8 -7 15 -18 15 -25
0 -8 3 -15 8 -17 4 -1 28 -32 54 -68 59 -81 101 -128 156 -174 25 -20 37 -36
29 -36 -9 0 -19 5 -22 10 -4 6 -25 23 -48 37 -69 44 -134 117 -171 195 -20 40
-36 71 -37 68 -1 -3 -3 -32 -4 -65 -1 -33 -6 -94 -10 -135 -4 -41 -8 -85 -8
-97 -1 -13 -4 -23 -8 -23 -3 0 -6 -8 -6 -17 1 -30 -75 -276 -108 -347 -20 -44
-9 -62 75 -126 44 -34 68 -54 141 -122 19 -18 50 -44 68 -58 18 -14 47 -37 64
-52 41 -36 151 -94 252 -135 44 -18 88 -38 99 -44 10 -6 30 -13 45 -15 14 -3
37 -9 51 -14 39 -15 330 -97 375 -106 22 -4 47 -9 55 -11 8 -1 26 -5 40 -7 14
-3 36 -7 50 -11 14 -3 48 -7 75 -9 28 -2 57 -7 66 -10 8 -4 36 -8 62 -9 26 -1
47 -4 47 -7 0 -4 10 -6 23 -7 59 -2 162 -29 182 -49 25 -26 16 -43 -31 -60
-70 -25 -298 10 -427 65 -25 11 -48 17 -51 14 -3 -4 -6 -1 -6 6 0 6 -6 11 -12
10 -7 -1 -26 4 -43 11 -33 14 -53 21 -72 22 -7 1 -13 5 -13 10 0 4 -6 8 -13 8
-8 0 -28 7 -45 16 -18 8 -36 13 -42 9 -5 -3 -10 -2 -10 3 0 5 -26 17 -57 27
-32 9 -80 24 -108 33 -27 9 -53 17 -57 18 -5 1 -9 2 -10 3 -2 2 -14 5 -28 8
-35 7 -42 9 -70 20 -14 6 -41 14 -60 18 -19 4 -41 12 -47 17 -7 6 -13 8 -13 5
0 -8 -140 48 -219 87 -39 20 -72 35 -73 34 -2 -2 -17 7 -35 20 -17 12 -36 22
-42 22 -6 0 -11 5 -11 10 0 6 -6 10 -12 10 -14 0 -127 114 -144 144 -14 27
-39 35 -27 10 5 -11 9 -26 8 -34 -1 -8 2 -19 5 -25 6 -10 4 -441 -3 -572 -4
-77 22 -154 61 -181 36 -24 146 -71 182 -77 8 -2 24 -6 35 -9 86 -24 265 -68
288 -71 15 -2 42 -8 60 -14 28 -9 128 -30 212 -45 17 -3 39 -8 50 -10 49 -9
110 -18 145 -21 22 -2 44 -7 51 -11 8 -5 9 -3 4 5 -6 10 -3 11 11 3 11 -5 34
-9 52 -8 17 0 32 -1 32 -4 0 -3 38 -5 85 -5 47 0 85 -3 85 -7 0 -4 11 -3 24 2
13 5 27 6 31 2 4 -4 57 -8 118 -9 62 -1 113 -3 115 -4 8 -6 28 -3 34 6 5 7 8
7 8 0 0 -6 12 -10 28 -10 64 3 83 -36 30 -59 -53 -23 -71 -28 -118 -33 -24 -2
-47 -7 -50 -11 -3 -4 -20 -7 -38 -7 -18 1 -35 -1 -37 -4 -2 -3 -27 -6 -57 -6
-29 1 -56 -4 -60 -10 -5 -6 -8 -6 -8 2 0 7 -10 10 -27 6 -48 -9 -287 -9 -301
0 -8 6 -12 5 -12 -2 0 -7 -5 -9 -10 -6 -6 4 -34 8 -63 10 -55 4 -67 6 -136 25
-24 6 -69 16 -100 21 -48 7 -193 48 -241 66 -8 3 -23 8 -33 10 -10 1 -31 10
-48 18 -16 9 -29 13 -29 10 0 -3 -18 6 -40 20 -22 14 -40 22 -40 18 0 -5 -5 0
-11 10 -5 9 -15 17 -21 17 -6 0 -30 18 -54 40 -24 22 -41 40 -38 40 3 0 -2 7
-10 16 -16 15 -41 10 -31 -6 3 -5 6 -25 7 -45 1 -19 6 -35 11 -35 6 0 8 -3 4
-6 -3 -3 0 -25 8 -49 7 -24 11 -46 8 -49 -3 -2 -1 -11 3 -18 5 -7 9 -17 10
-23 9 -49 67 -259 80 -290 10 -22 18 -42 19 -45 0 -3 3 -9 7 -15 22 -35 48
-87 48 -95 0 -13 65 -113 83 -129 19 -15 117 -42 128 -35 11 7 65 -48 84 -87
10 -19 24 -41 32 -51 8 -9 15 -22 17 -30 1 -7 11 -29 22 -48 11 -19 31 -55 43
-80 13 -25 31 -53 39 -63 8 -9 12 -17 9 -17 -4 0 0 -8 8 -17 8 -10 16 -22 17
-28 2 -5 17 -25 35 -44 18 -19 31 -37 29 -39 -6 -5 93 -101 130 -127 36 -25
124 -66 124 -58 0 3 6 1 13 -4 10 -9 52 -22 74 -24 5 0 13 -5 20 -11 7 -5 17
-7 23 -3 5 3 10 2 10 -3 0 -6 8 -8 18 -6 9 2 34 5 55 8 20 2 43 8 50 14 20 16
124 72 135 72 6 0 24 -20 40 -45 42 -63 115 -154 125 -155 5 0 14 -6 22 -13
26 -25 55 -47 55 -42 0 3 10 0 22 -7 13 -6 30 -14 38 -17 27 -8 134 -6 155 3
11 5 26 8 33 7 6 -1 12 2 12 6 0 5 8 9 18 10 30 1 97 15 107 21 6 4 18 7 28 8
9 1 19 3 22 4 3 1 13 3 23 4 13 2 118 25 142 31 3 1 23 5 45 9 104 20 225 72
225 97 0 5 8 9 17 9 9 0 14 3 11 6 -4 3 1 13 10 23 38 39 71 84 67 91 -3 5 2
11 11 14 8 3 12 10 9 16 -3 5 -1 10 4 10 6 0 10 3 9 8 -1 4 8 26 20 49 12 23
31 83 43 135 26 114 22 211 -12 278 -13 25 -22 48 -21 53 1 4 -3 7 -9 7 -5 0
-7 5 -4 10 3 5 1 10 -6 10 -7 0 -9 3 -6 7 4 3 2 12 -4 20 -6 7 -8 13 -4 13 4
0 3 6 -2 12 -12 16 -50 132 -58 175 -3 18 0 35 6 39 8 5 8 8 0 14 -17 10 8 63
26 56 7 -3 13 -2 13 3 0 5 14 11 30 13 27 4 36 -2 83 -61 62 -78 90 -121 80
-121 -5 0 -3 -4 2 -8 11 -8 61 -95 56 -100 -5 -6 89 -148 123 -186 19 -21 37
-42 38 -45 6 -12 86 -71 97 -71 6 0 11 -4 11 -8 0 -9 103 -55 145 -66 106 -27
171 -24 289 14 51 17 185 91 231 127 6 5 43 19 83 32 62 20 91 23 202 22 145
-1 169 5 217 59 45 48 47 52 51 75 2 11 9 23 14 26 6 4 8 11 4 17 -3 6 -1 14
5 17 5 4 8 13 5 20 -7 19 20 52 50 59 123 31 269 233 295 406 6 41 13 79 16
83 6 10 4 205 -3 252 -5 38 -15 174 -18 242 -1 29 -5 55 -8 58 -3 3 -22 -27
-43 -67 -21 -39 -44 -78 -51 -86 -8 -7 -12 -17 -9 -22 6 -10 -88 -109 -140
-146 -22 -16 -46 -34 -52 -41 -14 -13 -220 -114 -238 -117 -7 -1 -24 -10 -38
-19 -15 -10 -27 -14 -27 -10 0 5 -4 3 -8 -3 -12 -17 -122 -60 -207 -80 -69
-16 -104 -21 -181 -23 -102 -3 -159 9 -192 39 -31 29 -13 59 56 92 56 26 312
128 335 132 7 2 25 8 40 14 16 7 33 12 38 12 5 0 9 4 9 8 0 5 6 9 13 10 13 1
236 91 307 124 25 12 48 26 52 32 4 6 8 8 8 4 0 -15 190 98 190 113 0 5 3 8 8
7 17 -6 134 93 140 119 12 49 5 210 -13 307 -8 42 -74 165 -105 196 -3 3 -32
39 -65 80 -33 41 -86 102 -119 135 -59 60 -108 145 -111 195 -1 14 4 43 10 65
8 27 9 51 3 75 -9 33 -56 129 -68 140 -4 3 -33 39 -66 80 -60 76 -107 125
-157 163 -16 12 -34 27 -40 32 -7 6 -50 40 -97 75 -47 36 -132 112 -189 170
-87 87 -103 100 -96 75 18 -70 22 -145 12 -205 -4 -19 -11 -60 -16 -90 -6 -30
-17 -95 -26 -145 -9 -49 -18 -103 -20 -120 -2 -16 -6 -40 -8 -52 -3 -11 -9
-42 -12 -67 -4 -25 -12 -46 -18 -46 -6 0 -7 -3 -4 -6 3 -4 2 -15 -4 -26 -6
-11 -12 -27 -14 -36 -3 -9 -14 -48 -26 -87 -11 -38 -25 -88 -31 -110 -5 -22
-19 -59 -29 -82 -10 -24 -19 -45 -19 -48 0 -3 -9 -15 -19 -27 -11 -13 -29 -34
-41 -48 -12 -14 -42 -46 -67 -73 -25 -26 -43 -47 -39 -47 3 0 -2 -9 -11 -19
-10 -10 -34 -38 -53 -61 -45 -55 -99 -108 -128 -128 -25 -16 -86 -27 -77 -13
3 5 1 11 -5 13 -11 3 29 95 52 118 18 19 78 107 78 115 0 3 22 39 50 80 28 41
50 78 50 84 0 5 4 11 8 13 4 2 27 41 52 88 24 47 56 106 71 132 15 25 25 48
23 51 -3 3 2 21 10 41 8 20 13 36 11 36 -8 0 59 149 90 200 51 82 55 116 71
527 l5 142 -53 50 c-29 28 -61 54 -70 57 -10 3 -18 10 -18 16 0 6 -3 9 -6 5
-3 -3 -46 21 -94 54 -49 32 -93 59 -99 59 -6 0 -11 4 -11 8 0 7 -53 30 -72 32
-4 0 -26 7 -48 15 -22 8 -42 14 -45 15 -3 0 -6 0 -7 1 -7 1 -66 10 -96 13 -18
2 -35 6 -39 10 -3 3 -15 6 -25 6 -10 0 -18 5 -18 10 0 6 -6 10 -13 10 -8 0
-33 14 -55 30 -23 17 -43 30 -45 30 -2 0 7 -23 20 -51 14 -28 32 -88 40 -133
8 -44 18 -93 23 -108 5 -16 5 -30 0 -33 -4 -3 -4 -21 0 -40 5 -22 4 -35 -2
-35 -6 0 -5 -6 2 -15 9 -11 9 -15 1 -15 -7 0 -9 -5 -4 -12 10 -17 10 -39 0
-60 -4 -10 -4 -18 0 -18 6 0 8 -259 5 -505 -1 -11 -1 -24 -1 -30 0 -5 -2 -23
-6 -40 -3 -16 -7 -46 -8 -65 -2 -19 -6 -40 -9 -46 -4 -6 -9 -21 -12 -35 -2
-13 -14 -53 -25 -88 -12 -35 -21 -71 -21 -81 0 -9 -3 -20 -7 -24 -5 -4 -8 -11
-9 -14 -5 -36 -95 -221 -125 -257 -69 -80 -101 -95 -212 -96 -48 -1 -60 3 -76
22 -12 15 -17 34 -14 53 2 17 4 37 5 44 1 6 5 12 10 12 5 0 8 6 7 13 -2 6 14
46 34 87 63 129 129 272 131 284 1 6 9 23 19 39 41 66 47 77 47 92 0 8 4 15 9
15 5 0 13 15 16 33 4 17 11 37 16 43 5 6 11 21 13 35 3 13 5 24 6 24 1 0 3 7
5 16 1 9 11 43 20 75 10 33 18 64 19 69 1 6 5 16 10 23 4 7 5 16 2 19 -3 3 -1
13 4 22 4 9 11 35 14 57 4 22 9 51 12 64 3 14 8 39 11 55 9 46 9 575 0 615
-10 47 -15 64 -17 68 -2 1 -3 5 -4 10 -1 4 -10 21 -20 39 -16 25 -37 38 -110
66 -132 50 -189 69 -208 68 -10 0 -18 4 -18 8 0 7 -102 39 -107 34 -2 -2 -22
8 -45 21 -69 37 -146 61 -243 72 -27 3 -54 7 -60 8 -5 0 -13 6 -17 11 -5 6 -8
3 -8 -6 0 -9 15 -30 34 -47 61 -55 105 -154 121 -267 4 -30 23 -106 46 -180 7
-22 14 -43 15 -47 1 -5 2 -9 4 -10 7 -10 23 -147 24 -215 0 -24 3 -43 6 -43 8
0 4 -498 -4 -549 -4 -23 -11 -54 -16 -67 -5 -13 -8 -24 -5 -24 2 0 -2 -12 -10
-27 -8 -15 -12 -30 -9 -35 3 -4 2 -8 -3 -8 -4 0 -14 -13 -21 -30 -10 -22 -22
-31 -48 -36 -43 -8 -56 3 -59 50 -2 19 -6 39 -9 45 -4 6 -4 11 1 11 4 0 9 17
11 38 3 45 6 64 13 77 3 6 6 26 8 45 2 19 7 43 12 53 7 11 6 17 -1 17 -6 0 -8
5 -3 13 12 19 15 46 17 124 0 40 3 73 6 73 14 0 16 520 3 545 -6 11 -13 34
-14 50 -2 17 -7 32 -11 35 -4 3 -9 17 -11 30 -2 14 -6 32 -9 40 -3 8 -15 47
-28 85 -45 144 -134 272 -195 281 -5 1 -12 3 -15 4 -8 3 -160 7 -162 4z m2776
-1916 c-4 -29 -14 -74 -19 -88 -1 -3 -6 -20 -10 -37 -4 -18 -12 -33 -17 -33
-5 0 -6 -5 -2 -11 3 -6 2 -14 -4 -18 -7 -4 -13 -16 -15 -26 -2 -11 -9 -31 -17
-45 -8 -14 -14 -27 -15 -30 0 -6 -47 -83 -55 -90 -3 -3 -24 -33 -46 -67 -23
-34 -44 -59 -48 -56 -3 3 -6 -1 -6 -10 0 -10 -4 -17 -10 -17 -5 0 -10 -4 -10
-9 0 -15 -106 -173 -147 -217 -12 -13 -19 -24 -16 -24 9 0 -70 -71 -102 -91
-16 -10 -37 -19 -45 -19 -8 0 -51 -19 -95 -41 -228 -117 -276 -140 -302 -143
-15 -2 -32 -5 -38 -6 -28 -6 -45 2 -45 20 0 27 85 110 288 279 95 79 188 158
206 175 18 17 66 60 106 96 41 36 95 85 120 110 26 25 70 66 98 93 29 26 52
50 52 53 0 3 7 12 16 21 23 24 128 183 149 226 21 46 35 48 29 5z m-3639 -39
c6 -4 51 -23 100 -43 50 -20 101 -42 115 -48 14 -6 30 -13 35 -14 38 -12 142
-51 151 -56 6 -4 21 -9 35 -11 13 -3 52 -15 85 -26 34 -12 70 -23 80 -26 11
-2 51 -16 89 -30 39 -15 79 -30 90 -33 24 -6 105 -60 106 -70 0 -4 2 -15 4
-24 2 -10 -10 -29 -27 -43 -45 -38 -103 -34 -221 14 -54 22 -97 37 -97 34 0
-3 -6 0 -13 6 -8 6 -63 36 -123 67 -127 66 -193 108 -250 161 -59 54 -83 73
-147 117 -31 21 -57 40 -57 42 0 5 33 -7 45 -17z m1866 -419 c35 -19 17 -69
-55 -155 -57 -68 -103 -86 -157 -61 -31 14 -18 110 23 169 11 15 34 34 51 42
38 16 111 19 138 5z m337 -323 c28 -18 -5 -106 -52 -139 -6 -4 -8 -8 -4 -8 3
0 -23 -29 -59 -66 -69 -67 -115 -94 -164 -94 -35 0 -85 30 -84 50 0 8 -4 18
-10 22 -6 5 -6 8 3 8 6 0 12 6 12 13 0 44 109 137 237 201 44 23 96 28 121 13z
m91 -481 c29 -34 -128 -131 -192 -119 -57 11 -10 75 76 103 20 6 37 15 37 19
0 13 68 11 79 -3z m-800 -144 c20 -38 -25 -63 -125 -67 -63 -2 -76 0 -84 15
-7 13 -3 23 15 40 14 13 25 20 25 15 0 -5 5 -4 12 3 7 7 40 12 80 12 55 0 69
-3 77 -18z m1515 -511 c5 -2 32 -6 60 -8 48 -3 91 -9 91 -13 0 -2 32 -5 120
-14 22 -2 40 -5 40 -6 0 -2 29 -4 65 -6 36 -2 65 -4 65 -5 0 -1 16 -3 35 -4
19 -2 45 -5 58 -8 12 -3 22 -1 22 5 0 7 5 6 14 -1 8 -7 17 -8 20 -3 3 5 23 6
46 2 22 -4 40 -4 40 0 0 4 11 5 24 3 22 -5 23 -8 13 -24 -17 -27 -43 -34 -175
-49 -113 -12 -434 -3 -491 14 -110 33 -211 84 -211 107 0 4 8 10 18 12 21 6
133 5 146 -2z m-1992 -71 c-5 -22 -23 -40 -62 -64 -34 -21 -194 -96 -215 -101
-5 -1 -17 -5 -25 -8 -60 -26 -232 -85 -265 -92 -22 -5 -44 -10 -50 -11 -92
-26 -250 -23 -345 8 -40 12 -162 68 -170 77 -3 3 -17 12 -33 20 -19 10 -24 17
-15 22 7 5 14 4 16 -1 2 -6 11 -6 23 0 13 8 19 7 19 0 0 -6 4 -9 10 -5 5 3 44
8 87 11 123 9 235 20 241 24 3 4 13 5 72 14 30 4 62 9 70 11 8 2 60 11 115 20
55 10 107 20 115 22 8 3 35 7 60 10 24 2 47 7 50 11 3 4 14 8 25 8 11 1 36 5
55 9 19 4 42 8 50 9 9 1 20 4 25 7 6 3 20 4 33 3 12 0 22 1 22 5 0 3 21 6 48
6 36 -1 46 -4 44 -15z m321 -374 c9 -7 17 -24 17 -37 0 -30 -46 -129 -60 -129
-5 0 -10 -5 -10 -11 0 -10 -57 -68 -130 -132 -107 -94 -217 -122 -299 -75 -48
27 -51 39 -13 64 15 10 32 22 38 28 6 6 26 22 44 36 49 36 104 84 108 93 2 4
8 7 12 7 5 0 28 18 50 40 59 58 170 130 200 130 14 0 33 -7 43 -14z"/>
<path d="M250 1860 c0 -5 5 -10 10 -10 6 0 10 5 10 10 0 6 -4 10 -10 10 -5 0
-10 -4 -10 -10z"/>
</g>
</svg>
